<?xml version="1.0" standalone="no"?>
<!DOCTYPE svg PUBLIC "-//W3C//DTD SVG 20010904//EN"
 "http://www.w3.org/TR/2001/REC-SVG-20010904/DTD/svg10.dtd">
<svg version="1.0" xmlns="http://www.w3.org/2000/svg"
 width="400.000000pt" height="397.000000pt" viewBox="0 0 400.000000 397.000000"
 preserveAspectRatio="xMidYMid meet">

<g transform="translate(0.000000,397.000000) scale(0.100000,-0.100000)"
fill="#000000" stroke="none">
<path d="M1507 3180 c-14 -12 -47 -64 -72 -117 -25 -52 -45 -96 -45 -97 0 -1
72 -35 160 -76 88 -40 160 -78 160 -83 0 -5 -78 -179 -172 -385 l-173 -375 -3
311 -2 312 -25 0 c-14 0 -25 2 -25 4 0 2 15 37 34 77 33 71 34 74 15 83 -10 5
-21 7 -23 5 -2 -2 -131 -274 -285 -603 l-281 -600 49 -135 c39 -108 53 -135
66 -133 9 2 72 24 140 48 l123 46 32 71 c17 40 32 76 32 82 0 5 -47 31 -105
56 -103 46 -105 47 -114 26 -9 -20 -3 -25 66 -56 42 -18 80 -37 84 -41 5 -4
-2 -29 -15 -56 -22 -47 -25 -49 -113 -80 -49 -18 -97 -33 -105 -33 -11 -1 -27
31 -51 102 l-36 102 241 515 241 515 3 -332 c2 -287 4 -333 17 -333 8 0 15 -2
15 -4 0 -3 -24 -56 -54 -120 -53 -112 -54 -116 -35 -127 12 -6 22 -9 24 -7 4
4 505 1087 505 1092 0 2 -72 36 -160 77 -88 40 -160 76 -160 80 0 3 16 41 35
83 29 64 38 76 59 76 27 0 236 -95 249 -113 4 -7 5 -24 3 -39 -4 -21 0 -30 14
-38 17 -9 22 -7 30 15 27 70 -7 107 -156 175 -123 55 -149 60 -187 30z"/>
<path d="M1850 2625 l0 -25 609 0 608 0 34 -23 c18 -12 44 -38 56 -56 l23 -34
0 -468 0 -469 -925 0 -925 0 0 -25 0 -25 950 0 950 0 0 493 c0 454 -2 495 -19
532 -23 51 -79 101 -128 114 -25 7 -249 11 -635 11 l-598 0 0 -25z"/>
<path d="M1904 2199 l-120 -120 123 -121 c109 -108 125 -120 138 -107 13 13 3
27 -90 119 l-105 105 105 105 c101 101 105 107 88 123 -18 15 -25 10 -139
-104z"/>
<path d="M2347 2302 c-16 -17 -11 -23 88 -122 l105 -105 -105 -105 c-101 -101
-105 -107 -87 -123 17 -16 24 -10 140 106 l122 122 -123 123 c-118 117 -124
122 -140 104z"/>
<path d="M3177 1324 c-6 -54 -30 -91 -78 -119 -32 -19 -57 -20 -396 -25 l-363
-5 100 -150 c66 -99 100 -159 100 -177 l0 -28 -345 0 -345 0 0 25 c0 16 39 84
100 175 55 82 100 152 100 155 0 3 -159 5 -353 5 -351 0 -354 0 -398 23 -31
17 -50 37 -68 70 -25 50 -61 65 -61 27 0 -55 83 -143 147 -157 21 -4 177 -7
346 -5 l308 3 -85 -128 c-83 -124 -86 -130 -86 -185 l0 -58 395 0 395 0 0 60
c0 59 -2 64 -79 179 l-79 118 225 6 c125 4 269 7 322 7 72 0 106 5 137 19 56
25 106 98 112 163 4 46 3 48 -20 48 -23 0 -26 -5 -31 -46z"/>
<path d="M173 185 c0 -33 2 -45 4 -27 2 18 2 45 0 60 -2 15 -4 0 -4 -33z"/>
<path d="M205 200 c-4 -6 -4 -14 -1 -17 3 -4 6 -1 6 5 0 15 36 16 43 2 3 -6 4
-5 3 2 -3 17 -42 23 -51 8z"/>
<path d="M390 206 c0 -2 9 -6 20 -9 11 -3 18 -1 14 4 -5 9 -34 13 -34 5z"/>
<path d="M483 191 c-25 -21 -30 -33 -10 -25 10 4 43 45 35 44 -2 -1 -13 -9
-25 -19z"/>
<path d="M558 203 c7 -3 16 -2 19 1 4 3 -2 6 -13 5 -11 0 -14 -3 -6 -6z"/>
<path d="M680 206 c0 -2 9 -6 20 -9 11 -3 18 -1 14 4 -5 9 -34 13 -34 5z"/>
<path d="M745 200 c-4 -6 -4 -14 -1 -17 3 -4 6 -1 6 5 0 15 36 16 43 2 3 -6 4
-5 3 2 -3 17 -42 23 -51 8z"/>
<path d="M858 203 c6 -3 13 -21 13 -41 l2 -37 6 35 c9 50 38 53 44 6 l4 -36
-1 37 c-1 37 -2 38 -41 39 -22 1 -34 -1 -27 -3z"/>
<path d="M1002 198 c-7 -7 -12 -21 -11 -32 1 -18 2 -17 8 4 5 17 14 25 29 24
11 0 19 3 16 8 -7 12 -28 10 -42 -4z"/>
<path d="M1072 166 c1 -38 2 -38 5 -8 5 36 29 53 45 31 8 -12 9 -11 5 1 -2 8
-16 15 -30 16 -25 1 -27 -2 -25 -40z"/>
<path d="M281 175 c-1 -22 16 -45 33 -45 5 0 3 6 -6 13 -9 6 -18 21 -21 32 -5
20 -5 20 -6 0z"/>
<path d="M372 170 c0 -14 2 -19 5 -12 2 6 2 18 0 25 -3 6 -5 1 -5 -13z"/>
<path d="M532 170 c0 -14 2 -19 5 -12 2 6 2 18 0 25 -3 6 -5 1 -5 -13z"/>
<path d="M591 172 c-1 -13 -10 -26 -23 -32 -16 -6 -18 -9 -7 -9 22 -1 42 24
36 46 -4 14 -5 13 -6 -5z"/>
<path d="M662 170 c0 -14 2 -19 5 -12 2 6 2 18 0 25 -3 6 -5 1 -5 -13z"/>
<path d="M251 154 c0 -11 3 -14 6 -6 3 7 2 16 -1 19 -3 4 -6 -2 -5 -13z"/>
<path d="M791 154 c0 -11 3 -14 6 -6 3 7 2 16 -1 19 -3 4 -6 -2 -5 -13z"/>
<path d="M203 150 c2 -8 12 -16 23 -17 13 -2 15 -1 4 4 -8 3 -19 11 -23 17 -6
7 -7 6 -4 -4z"/>
<path d="M743 150 c2 -8 12 -16 23 -17 13 -2 15 -1 4 4 -8 3 -19 11 -23 17 -6
7 -7 6 -4 -4z"/>
<path d="M405 140 c-16 -7 -17 -9 -3 -9 9 -1 20 4 23 9 7 11 7 11 -20 0z"/>
<path d="M310 110 c-23 -7 -23 -8 -3 -9 12 -1 25 4 28 9 3 6 5 10 3 9 -2 -1
-14 -5 -28 -9z"/>
</g>
</svg>
